<?xml version="1.0" encoding="UTF-8"?>
<!DOCTYPE svg PUBLIC "-//W3C//DTD SVG 1.1//EN" "http://www.w3.org/Graphics/SVG/1.1/DTD/svg11.dtd">
<svg xmlns="http://www.w3.org/2000/svg" version="1.1" width="512px" height="512px" style="shape-rendering:geometricPrecision; text-rendering:geometricPrecision; image-rendering:optimizeQuality; fill-rule:evenodd; clip-rule:evenodd" xmlns:xlink="http://www.w3.org/1999/xlink">
<g><path style="opacity:0.989" fill="#9ba8aa" d="M 99.5,-0.5 C 103.5,-0.5 107.5,-0.5 111.5,-0.5C 129.994,7.3254 143.661,20.3254 152.5,38.5C 146.838,44.3299 141.338,50.3299 136,56.5C 134.212,58.76 132.712,61.0934 131.5,63.5C 119.827,53.6549 106.827,45.8216 92.5,40C 89.0074,38.9963 85.8408,39.4963 83,41.5C 78.4572,49.2523 74.4572,57.2523 71,65.5C 69.5629,71.0742 71.3963,75.2409 76.5,78C 89.0142,84.621 102.348,87.7876 116.5,87.5C 114.885,92.1406 113.218,96.8072 111.5,101.5C 109.167,101.5 106.833,101.5 104.5,101.5C 101.813,101.664 99.146,101.497 96.5,101C 90.5294,99.3068 84.5294,97.8068 78.5,96.5C 55.4246,87.4539 49.5912,71.7872 61,49.5C 67.0806,38.3367 73.414,27.3367 80,16.5C 85.1873,9.1339 91.6873,3.46723 99.5,-0.5 Z"/></g>
<g><path style="opacity:0.991" fill="#a8b4b6" d="M 239.5,-0.5 C 250.167,-0.5 260.833,-0.5 271.5,-0.5C 275.851,0.407598 280.184,1.4076 284.5,2.5C 235.943,13.8852 200.443,41.8852 178,86.5C 158.064,71.1511 154.397,52.4844 167,30.5C 169.04,28.6298 170.873,26.6298 172.5,24.5C 184.8,15.4385 198.467,8.93851 213.5,5C 222.237,2.82092 230.903,0.98759 239.5,-0.5 Z"/></g>
<g><path style="opacity:0.989" fill="#a7b3b5" d="M 399.5,-0.5 C 403.5,-0.5 407.5,-0.5 411.5,-0.5C 419.336,3.49401 425.836,9.16068 431,16.5C 439.969,30.1019 447.635,44.4352 454,59.5C 458.068,71.9621 454.901,82.1287 444.5,90C 440.566,92.4639 436.566,94.6306 432.5,96.5C 421.727,99.6845 410.727,101.684 399.5,102.5C 397.89,97.3357 395.89,92.3357 393.5,87.5C 402.628,87.3191 411.628,86.1524 420.5,84C 428.208,82.0684 434.708,78.2351 440,72.5C 438.441,60.5354 433.941,49.7021 426.5,40C 421.973,39.266 417.639,39.9327 413.5,42C 401.273,47.6023 389.939,54.4356 379.5,62.5C 372.529,54.5254 365.529,46.5254 358.5,38.5C 367.339,20.3254 381.006,7.3254 399.5,-0.5 Z"/></g>
<g><path style="opacity:0.999" fill="#b3bec0" d="M 284.5,2.5 C 304.294,5.75627 322.294,13.0896 338.5,24.5C 355.447,43.3041 355.781,62.4708 339.5,82C 337.545,82.9533 335.878,84.2866 334.5,86C 327.379,89.1476 320.379,92.4809 313.5,96C 307.399,101.049 302.899,107.216 300,114.5C 298.401,124.464 297.234,134.464 296.5,144.5C 269.227,133.839 241.893,133.839 214.5,144.5C 216.983,125.325 211.316,109.159 197.5,96C 191.622,92.5935 185.455,89.7602 179,87.5C 177.523,88.444 176.523,89.7774 176,91.5C 173.824,97.5654 171.657,103.565 169.5,109.5C 165.154,109.334 160.821,109.501 156.5,110C 152.5,113.667 152.5,117.333 156.5,121C 159.695,121.181 162.695,121.681 165.5,122.5C 159.118,138.321 154.118,154.654 150.5,171.5C 152.167,171.5 153.833,171.5 155.5,171.5C 129.989,171.894 107.656,180.561 88.5,197.5C 88.1048,186.401 88.9381,175.401 91,164.5C 97.6035,144.19 104.104,123.857 110.5,103.5C 111.338,103.158 111.672,102.492 111.5,101.5C 113.218,96.8072 114.885,92.1406 116.5,87.5C 120.999,79.1636 125.999,71.1636 131.5,63.5C 132.712,61.0934 134.212,58.76 136,56.5C 141.338,50.3299 146.838,44.3299 152.5,38.5C 158.846,33.3312 165.513,28.6645 172.5,24.5C 170.873,26.6298 169.04,28.6298 167,30.5C 154.397,52.4844 158.064,71.1511 178,86.5C 200.443,41.8852 235.943,13.8852 284.5,2.5 Z"/></g>
<g><path style="opacity:0.999" fill="#bfc9cb" d="M 338.5,24.5 C 345.425,28.7521 352.092,33.4188 358.5,38.5C 365.529,46.5254 372.529,54.5254 379.5,62.5C 384.927,70.3484 389.594,78.6817 393.5,87.5C 395.89,92.3357 397.89,97.3357 399.5,102.5C 406.826,123.311 413.659,144.311 420,165.5C 422.095,176.062 422.928,186.728 422.5,197.5C 395.654,176.115 364.988,167.449 330.5,171.5C 321.496,159.489 310.163,150.489 296.5,144.5C 297.234,134.464 298.401,124.464 300,114.5C 302.899,107.216 307.399,101.049 313.5,96C 320.379,92.4809 327.379,89.1476 334.5,86C 335.878,84.2866 337.545,82.9533 339.5,82C 355.781,62.4708 355.447,43.3041 338.5,24.5 Z"/></g>
<g><path style="opacity:1" fill="#909ea0" d="M 131.5,63.5 C 125.999,71.1636 120.999,79.1636 116.5,87.5C 102.348,87.7876 89.0142,84.621 76.5,78C 71.3963,75.2409 69.5629,71.0742 71,65.5C 74.4572,57.2523 78.4572,49.2523 83,41.5C 85.8408,39.4963 89.0074,38.9963 92.5,40C 106.827,45.8216 119.827,53.6549 131.5,63.5 Z"/></g>
<g><path style="opacity:1" fill="#9ca9ab" d="M 393.5,87.5 C 389.594,78.6817 384.927,70.3484 379.5,62.5C 389.939,54.4356 401.273,47.6023 413.5,42C 417.639,39.9327 421.973,39.266 426.5,40C 433.941,49.7021 438.441,60.5354 440,72.5C 434.708,78.2351 428.208,82.0684 420.5,84C 411.628,86.1524 402.628,87.3191 393.5,87.5 Z"/></g>
<g><path style="opacity:1" fill="#bfc9cb" d="M 214.5,144.5 C 200.99,150.506 189.657,159.34 180.5,171C 172.173,171.5 163.84,171.666 155.5,171.5C 153.833,171.5 152.167,171.5 150.5,171.5C 154.118,154.654 159.118,138.321 165.5,122.5C 168.445,133.472 175.111,136.639 185.5,132C 192.788,123.644 191.788,116.31 182.5,110C 178.179,109.501 173.846,109.334 169.5,109.5C 171.657,103.565 173.824,97.5654 176,91.5C 176.523,89.7774 177.523,88.444 179,87.5C 185.455,89.7602 191.622,92.5935 197.5,96C 211.316,109.159 216.983,125.325 214.5,144.5 Z"/></g>
<g><path style="opacity:0.996" fill="#17a34a" d="M 78.5,96.5 C 84.5294,97.8068 90.5294,99.3068 96.5,101C 99.146,101.497 101.813,101.664 104.5,101.5C 106.5,102.167 108.5,102.833 110.5,103.5C 104.104,123.857 97.6035,144.19 91,164.5C 88.9381,175.401 88.1048,186.401 88.5,197.5C 69.9289,215.643 59.0956,237.643 56,263.5C 55.1012,283.864 55.4346,304.197 57,324.5C 59.7034,333.931 64.8701,341.597 72.5,347.5C 63.1667,361.833 53.8333,376.167 44.5,390.5C 16.3104,343.045 5.47704,291.711 12,236.5C 19.354,182.51 41.5206,135.843 78.5,96.5 Z"/></g>
<g><path style="opacity:0.997" fill="#16a34a" d="M 432.5,96.5 C 494.794,165.348 514.294,245.015 491,335.5C 485.511,355.134 477.345,373.467 466.5,390.5C 457.001,376.176 448.001,361.509 439.5,346.5C 446.818,340.558 451.652,332.891 454,323.5C 456.254,299.122 455.921,274.788 453,250.5C 447.981,229.786 437.814,212.119 422.5,197.5C 422.928,186.728 422.095,176.062 420,165.5C 413.659,144.311 406.826,123.311 399.5,102.5C 410.727,101.684 421.727,99.6845 432.5,96.5 Z"/></g>
<g><path style="opacity:1" fill="#61a780" d="M 104.5,101.5 C 106.833,101.5 109.167,101.5 111.5,101.5C 111.672,102.492 111.338,103.158 110.5,103.5C 108.5,102.833 106.5,102.167 104.5,101.5 Z"/></g>
<g><path style="opacity:1" fill="#34233b" d="M 169.5,109.5 C 173.846,109.334 178.179,109.501 182.5,110C 191.788,116.31 192.788,123.644 185.5,132C 175.111,136.639 168.445,133.472 165.5,122.5C 162.695,121.681 159.695,121.181 156.5,121C 152.5,117.333 152.5,113.667 156.5,110C 160.821,109.501 165.154,109.334 169.5,109.5 Z"/></g>
<g><path style="opacity:1" fill="#34233b" d="M 329.5,109.5 C 337.84,109.334 346.173,109.5 354.5,110C 358.5,113.667 358.5,117.333 354.5,121C 351.518,121.498 348.518,121.665 345.5,121.5C 343.141,133.18 336.474,136.68 325.5,132C 317.834,122.807 319.167,115.307 329.5,109.5 Z"/></g>
<g><path style="opacity:1" fill="#a7b3b5" d="M 296.5,144.5 C 310.163,150.489 321.496,159.489 330.5,171.5C 303.165,171.333 275.831,171.5 248.5,172C 227.27,173.122 208.27,180.122 191.5,193C 190.748,193.671 190.414,194.504 190.5,195.5C 183.689,190.561 178.523,191.895 175,199.5C 174.501,203.486 174.334,207.486 174.5,211.5C 165.44,222.623 159.273,235.29 156,249.5C 153.193,274.139 152.86,298.806 155,323.5C 157.686,324.676 160.019,326.343 162,328.5C 162.684,331.38 162.517,334.213 161.5,337C 164.689,343.022 169.355,347.522 175.5,350.5C 178.997,351.713 182.33,353.046 185.5,354.5C 155.5,354.5 125.5,354.5 95.5,354.5C 87.1463,354.299 79.4797,351.966 72.5,347.5C 64.8701,341.597 59.7034,333.931 57,324.5C 55.4346,304.197 55.1012,283.864 56,263.5C 59.0956,237.643 69.9289,215.643 88.5,197.5C 107.656,180.561 129.989,171.894 155.5,171.5C 163.84,171.666 172.173,171.5 180.5,171C 189.657,159.34 200.99,150.506 214.5,144.5C 241.893,133.839 269.227,133.839 296.5,144.5 Z"/></g>
<g><path style="opacity:1" fill="#b3bec0" d="M 330.5,171.5 C 364.988,167.449 395.654,176.115 422.5,197.5C 437.814,212.119 447.981,229.786 453,250.5C 455.921,274.788 456.254,299.122 454,323.5C 451.652,332.891 446.818,340.558 439.5,346.5C 432.396,351.757 424.396,354.424 415.5,354.5C 371.47,354.962 327.47,354.462 283.5,353C 267.808,347.142 258.475,335.975 255.5,319.5C 251.71,338.456 240.377,349.956 221.5,354C 209.505,354.5 197.505,354.667 185.5,354.5C 182.33,353.046 178.997,351.713 175.5,350.5C 169.355,347.522 164.689,343.022 161.5,337C 162.517,334.213 162.684,331.38 162,328.5C 160.019,326.343 157.686,324.676 155,323.5C 152.86,298.806 153.193,274.139 156,249.5C 159.273,235.29 165.44,222.623 174.5,211.5C 176.712,219.542 181.378,225.709 188.5,230C 194.44,231.419 198.607,229.252 201,223.5C 202.77,212.064 199.27,202.73 190.5,195.5C 190.414,194.504 190.748,193.671 191.5,193C 208.27,180.122 227.27,173.122 248.5,172C 275.831,171.5 303.165,171.333 330.5,171.5 Z"/></g>
<g><path style="opacity:1" fill="#9ca9ab" d="M 190.5,195.5 C 199.27,202.73 202.77,212.064 201,223.5C 198.607,229.252 194.44,231.419 188.5,230C 181.378,225.709 176.712,219.542 174.5,211.5C 174.334,207.486 174.501,203.486 175,199.5C 178.523,191.895 183.689,190.561 190.5,195.5 Z"/></g>
<g><path style="opacity:1" fill="#9ca9ab" d="M 324.5,192.5 C 331.271,191.759 335.437,194.759 337,201.5C 337.561,211.887 334.061,220.72 326.5,228C 318.145,232.955 312.645,230.788 310,221.5C 309.538,209.091 314.371,199.424 324.5,192.5 Z"/></g>
<g><path style="opacity:1" fill="#9ca9ab" d="M 388.5,264.5 C 396.201,264.362 399.367,268.029 398,275.5C 392.833,281.092 388.167,280.759 384,274.5C 383.333,272.833 383.333,271.167 384,269.5C 385.366,267.638 386.866,265.972 388.5,264.5 Z"/></g>
<g><path style="opacity:1" fill="#9ca9ab" d="M 424.5,264.5 C 431.657,264.155 434.824,267.488 434,274.5C 429.833,280.759 425.167,281.092 420,275.5C 418.776,270.626 420.276,266.959 424.5,264.5 Z"/></g>
<g><path style="opacity:1" fill="#9ca9ab" d="M 171.5,294.5 C 178.685,294.848 181.519,298.515 180,305.5C 177.839,309.124 174.672,310.291 170.5,309C 166.788,306.487 165.622,302.987 167,298.5C 168.397,296.93 169.897,295.596 171.5,294.5 Z"/></g>
<g><path style="opacity:1" fill="#9ca9ab" d="M 335.5,294.5 C 342.685,294.848 345.519,298.515 344,305.5C 341.839,309.124 338.672,310.291 334.5,309C 330.788,306.487 329.622,302.987 331,298.5C 332.397,296.93 333.897,295.596 335.5,294.5 Z"/></g>
<g><path style="opacity:1" fill="#9ca9ab" d="M 370.5,294.5 C 378.201,294.362 381.367,298.029 380,305.5C 374.833,311.092 370.167,310.759 366,304.5C 365.333,302.833 365.333,301.167 366,299.5C 367.366,297.638 368.866,295.972 370.5,294.5 Z"/></g>
<g><path style="opacity:1" fill="#9ca9ab" d="M 406.5,294.5 C 414.149,294.314 417.315,297.981 416,305.5C 410.833,311.092 406.167,310.759 402,304.5C 401.077,300.017 402.577,296.683 406.5,294.5 Z"/></g>
<g><path style="opacity:1" fill="#9ca9ab" d="M 415.5,354.5 C 414.27,375.236 403.604,388.403 383.5,394C 309.834,394.5 236.167,394.667 162.5,394.5C 151.828,394.667 141.161,394.5 130.5,394C 108.8,389.797 97.1336,376.63 95.5,354.5C 125.5,354.5 155.5,354.5 185.5,354.5C 197.505,354.667 209.505,354.5 221.5,354C 240.377,349.956 251.71,338.456 255.5,319.5C 258.475,335.975 267.808,347.142 283.5,353C 327.47,354.462 371.47,354.962 415.5,354.5 Z"/></g>
<g><path style="opacity:1" fill="#9ca9ab" d="M 188.5,324.5 C 198.11,324.936 200.776,329.436 196.5,338C 187.319,341.325 183.485,338.158 185,328.5C 186.376,327.295 187.542,325.962 188.5,324.5 Z"/></g>
<g><path style="opacity:1" fill="#9ca9ab" d="M 317.5,324.5 C 324.685,324.848 327.519,328.515 326,335.5C 323.839,339.124 320.672,340.291 316.5,339C 312.788,336.487 311.622,332.987 313,328.5C 314.397,326.93 315.897,325.596 317.5,324.5 Z"/></g>
<g><path style="opacity:1" fill="#9ca9ab" d="M 352.5,324.5 C 362.11,324.936 364.776,329.436 360.5,338C 351.319,341.325 347.485,338.158 349,328.5C 350.376,327.295 351.542,325.962 352.5,324.5 Z"/></g>
<g><path style="opacity:1" fill="#9ca9ab" d="M 388.5,324.5 C 396.201,324.362 399.367,328.029 398,335.5C 392.833,341.092 388.167,340.759 384,334.5C 383.333,332.833 383.333,331.167 384,329.5C 385.366,327.638 386.866,325.972 388.5,324.5 Z"/></g>
<g><path style="opacity:1" fill="#9ca9ab" d="M 424.5,324.5 C 431.657,324.155 434.824,327.488 434,334.5C 429.833,340.759 425.167,341.092 420,335.5C 418.776,330.626 420.276,326.959 424.5,324.5 Z"/></g>
<g><path style="opacity:0.995" fill="#7e8d8e" d="M 72.5,347.5 C 79.4797,351.966 87.1463,354.299 95.5,354.5C 97.1336,376.63 108.8,389.797 130.5,394C 141.161,394.5 151.828,394.667 162.5,394.5C 168.005,399.009 171.005,404.842 171.5,412C 166.998,426.177 163.832,440.677 162,455.5C 161.292,468.185 161.459,480.852 162.5,493.5C 111.42,472.626 72.0867,438.293 44.5,390.5C 53.8333,376.167 63.1667,361.833 72.5,347.5 Z"/></g>
<g><path style="opacity:0.999" fill="#8f9e9f" d="M 439.5,346.5 C 448.001,361.509 457.001,376.176 466.5,390.5C 429.474,452.55 375.474,491.383 304.5,507C 294.71,508.659 285.044,510.159 275.5,511.5C 262.167,511.5 248.833,511.5 235.5,511.5C 210.455,508.822 186.121,502.822 162.5,493.5C 161.459,480.852 161.292,468.185 162,455.5C 163.832,440.677 166.998,426.177 171.5,412C 171.005,404.842 168.005,399.009 162.5,394.5C 236.167,394.667 309.834,394.5 383.5,394C 403.604,388.403 414.27,375.236 415.5,354.5C 424.396,354.424 432.396,351.757 439.5,346.5 Z"/></g>
</svg>
