<svg version="1.1" id="Layer_1" xmlns="http://www.w3.org/2000/svg" xmlns:xlink="http://www.w3.org/1999/xlink" x="0px" y="0px"
	 width="100%" viewBox="0 0 512 512" enable-background="new 0 0 512 512" xml:space="preserve">
<path fill="#909EA0" opacity="1.000000" stroke="none" 
	d="
M287.000000,513.000000 
	C267.312439,513.000000 247.624878,513.000000 227.701660,512.615906 
	C222.281250,511.156952 217.118103,509.961426 211.907791,509.029572 
	C195.413620,506.079681 179.471786,501.302307 164.009933,494.419922 
	C163.662399,484.897278 163.083649,475.791656 163.052536,466.684143 
	C162.998199,450.774841 167.040619,435.564636 171.279465,420.369476 
	C172.338211,416.574066 172.984894,411.960358 171.781982,408.414490 
	C170.261078,403.931183 166.654083,400.155548 164.418610,396.058044 
	C235.471573,396.027954 306.053436,395.848053 376.633698,396.102509 
	C397.789459,396.178741 417.059937,379.026581 417.476440,356.063599 
	C426.358032,356.421234 433.350647,352.163879 440.879395,349.183441 
	C450.082153,363.683350 459.060089,377.897552 468.012695,392.468689 
	C467.358795,393.766785 466.674255,394.675690 466.109802,395.653931 
	C450.928345,421.964996 430.427368,443.705963 406.810791,462.363770 
	C392.665222,473.539185 377.049194,482.680878 360.531158,490.327423 
	C337.728516,500.883240 314.063782,507.936584 289.173187,511.079681 
	C288.380615,511.179779 287.721405,512.336121 287.000000,513.000000 
z"/>
<path fill="#000000" opacity="1.000000" stroke="none" 
	d="
M164.025269,494.836121 
	C179.471786,501.302307 195.413620,506.079681 211.907791,509.029572 
	C217.118103,509.961426 222.281250,511.156952 227.233002,512.615906 
	C151.706146,513.000000 76.412300,513.000000 1.059224,513.000000 
	C1.059224,342.333344 1.059224,171.666672 1.059224,1.000000 
	C33.096195,1.000000 65.079437,1.000000 97.859879,1.254048 
	C95.992378,3.618521 93.037766,5.451566 90.710121,7.884451 
	C75.742874,23.528425 65.673752,42.201111 58.430592,62.366795 
	C54.918060,72.146065 56.292423,81.662003 65.129135,88.486473 
	C69.800819,92.094322 75.130249,94.850487 80.003990,98.291710 
	C75.462875,103.343437 70.731995,107.821747 66.760117,112.894356 
	C51.784691,132.019943 39.228897,152.607208 29.939972,175.132767 
	C19.886347,199.512741 13.927296,224.915726 12.210357,251.132523 
	C11.356956,264.163513 11.952603,277.402252 13.181835,290.425323 
	C14.428541,303.633545 16.603111,316.843079 19.565464,329.778564 
	C23.538689,347.128082 30.504341,363.527222 38.291794,379.512970 
	C40.427235,383.896515 43.354252,387.894470 45.961761,392.428040 
	C52.811749,402.508118 59.310005,412.463898 66.490852,421.900269 
	C79.834877,439.435669 95.862152,454.323273 113.736115,467.134186 
	C129.375229,478.343292 145.998138,487.897644 164.025269,494.836121 
z"/>
<path fill="#000000" opacity="1.000000" stroke="none" 
	d="
M287.468658,513.000000 
	C287.721405,512.336121 288.380615,511.179779 289.173187,511.079681 
	C314.063782,507.936584 337.728516,500.883240 360.531158,490.327423 
	C377.049194,482.680878 392.665222,473.539185 406.810791,462.363770 
	C430.427368,443.705963 450.928345,421.964996 466.109802,395.653931 
	C466.674255,394.675690 467.358795,393.766785 468.306030,392.276733 
	C469.415710,390.478760 470.271240,389.265411 470.988403,387.975189 
	C488.760834,356.001404 499.320038,321.713226 501.793915,285.297485 
	C503.500732,260.172638 501.867249,235.021912 495.662018,210.438675 
	C488.482269,181.994690 477.502716,155.097351 460.442719,131.102081 
	C452.252625,119.582497 442.747498,108.997841 434.020416,97.661522 
	C442.652222,94.756393 449.430054,89.830177 454.107147,82.365440 
	C459.228333,74.191864 457.588593,65.607361 454.002258,57.575851 
	C449.720062,47.986092 445.047424,38.496822 439.657410,29.494829 
	C433.322998,18.915472 427.135651,7.900586 415.050232,2.395310 
	C414.860901,2.309068 415.009247,1.481571 415.000000,1.000000 
	C447.649567,1.000000 480.299164,1.000000 512.974365,1.000000 
	C512.974365,171.560257 512.974365,342.120514 512.974365,513.000000 
	C437.979401,513.000000 362.958374,513.000000 287.468658,513.000000 
z"/>
<path fill="#9CA9AB" opacity="1.000000" stroke="none" 
	d="
M80.162720,97.991165 
	C75.130249,94.850487 69.800819,92.094322 65.129135,88.486473 
	C56.292423,81.662003 54.918060,72.146065 58.430592,62.366795 
	C65.673752,42.201111 75.742874,23.528425 90.710121,7.884451 
	C93.037766,5.451566 95.992378,3.618521 98.328537,1.254048 
	C103.688042,1.000000 109.376083,1.000000 115.200836,1.278833 
	C126.523201,7.176135 136.594711,14.233905 143.973221,24.540022 
	C147.535370,29.515524 150.689667,34.783024 153.872070,40.218094 
	C146.855911,48.361603 139.996307,56.205330 132.831879,63.877892 
	C120.252983,54.788513 107.605896,46.543850 93.000755,41.840252 
	C89.684662,40.772305 86.203743,39.970001 84.220734,43.805340 
	C80.565231,50.875446 76.769905,57.930569 73.878807,65.322792 
	C70.870560,73.014549 71.789368,74.800842 78.225456,79.630806 
	C79.136337,80.314377 80.232147,80.770996 81.280571,81.248833 
	C92.970001,86.576439 105.389893,88.479103 118.006393,89.430840 
	C116.122887,94.442131 114.321136,99.086792 112.054214,103.754944 
	C101.113594,101.849335 90.638153,99.920250 80.162720,97.991165 
z"/>
<path fill="#A8B4B6" opacity="1.000000" stroke="none" 
	d="
M414.532410,1.000000 
	C415.009247,1.481571 414.860901,2.309068 415.050232,2.395310 
	C427.135651,7.900586 433.322998,18.915472 439.657410,29.494829 
	C445.047424,38.496822 449.720062,47.986092 454.002258,57.575851 
	C457.588593,65.607361 459.228333,74.191864 454.107147,82.365440 
	C449.430054,89.830177 442.652222,94.756393 433.634033,97.651443 
	C422.418304,100.035248 411.771484,102.100861 401.028748,103.793770 
	C398.976135,98.603523 397.019440,93.785973 395.509521,88.976654 
	C408.827118,88.598763 421.383881,86.883041 433.167053,81.151833 
	C440.515442,77.577660 443.216919,72.894485 440.456818,65.326164 
	C438.136658,58.964123 435.023010,52.848419 431.806244,46.868092 
	C428.333130,40.411282 426.168610,39.630119 419.247559,42.127010 
	C405.208221,47.191925 392.754456,55.112026 380.646301,63.871376 
	C373.575287,55.754128 366.774323,47.832878 359.991028,39.549850 
	C369.072357,23.693218 379.977600,10.091522 397.147949,2.865946 
	C397.611603,2.670835 397.723877,1.640727 398.000000,0.999998 
	C403.354919,1.000000 408.709869,1.000000 414.532410,1.000000 
z"/>
<path fill="#A8B4B6" opacity="1.000000" stroke="none" 
	d="
M233.000000,0.999998 
	C248.354233,1.000000 263.708466,1.000000 279.196838,1.306715 
	C281.589630,2.390773 283.848236,3.168115 285.754547,4.102688 
	C283.483978,4.796221 281.569794,5.347409 279.646912,5.866586 
	C253.293732,12.981993 230.094025,25.649740 210.581894,44.896217 
	C199.131943,56.190308 189.499268,68.792381 182.389114,83.256332 
	C180.989334,86.103874 179.645264,88.254814 176.061615,85.583038 
	C162.577835,75.530304 157.288971,56.965046 163.885132,41.397449 
	C165.864380,36.726284 168.577972,32.366264 171.011841,27.633995 
	C171.249786,27.106968 171.514526,26.958036 172.063568,26.846237 
	C172.539856,26.591938 172.776901,26.401163 173.297882,26.015991 
	C174.090897,25.403448 174.496460,24.835970 175.041718,24.486414 
	C191.967941,13.635180 210.438950,6.746681 230.131210,2.943231 
	C231.173691,2.741878 232.047607,1.667794 233.000000,0.999998 
z"/>
<path fill="#000000" opacity="1.000000" stroke="none" 
	d="
M286.106873,3.945456 
	C283.848236,3.168115 281.589630,2.390773 279.665497,1.306715 
	C319.020905,1.000000 358.041779,1.000000 397.531342,0.999998 
	C397.723877,1.640727 397.611603,2.670835 397.147949,2.865946 
	C379.977600,10.091522 369.072357,23.693218 359.654419,39.497265 
	C353.881592,35.826210 348.463043,31.845959 342.988403,27.634907 
	C342.750366,27.105104 342.484406,26.956266 342.038635,26.710663 
	C341.638885,26.362038 341.334869,26.260340 340.706177,26.014591 
	C332.331482,21.471752 324.607269,16.253101 316.145569,12.890361 
	C306.475037,9.047223 296.148407,6.855030 286.106873,3.945456 
z"/>
<path fill="#000000" opacity="1.000000" stroke="none" 
	d="
M171.862762,26.957504 
	C171.514526,26.958036 171.249786,27.106968 170.656525,27.698816 
	C164.839233,31.968330 159.433929,35.943325 154.028625,39.918312 
	C150.689667,34.783024 147.535370,29.515524 143.973221,24.540022 
	C136.594711,14.233905 126.523201,7.176135 115.668777,1.278833 
	C154.687561,1.000000 193.375122,1.000000 232.531342,0.999998 
	C232.047607,1.667794 231.173691,2.741878 230.131210,2.943231 
	C210.438950,6.746681 191.967941,13.635180 175.041718,24.486414 
	C174.496460,24.835970 174.090897,25.403448 173.034058,25.985905 
	C172.252853,26.387484 172.057800,26.672495 171.862762,26.957504 
z"/>
<path fill="#B4BFC1" opacity="1.000000" stroke="none" 
	d="
M440.654541,348.897766 
	C433.350647,352.163879 426.358032,356.421234 417.003479,356.042328 
	C375.936401,356.029022 335.774261,356.136414 295.613647,355.936523 
	C280.915649,355.863373 269.818695,348.888062 262.667480,336.124603 
	C260.193115,331.708344 258.744202,326.717499 256.870300,322.096130 
	C255.180573,326.825775 254.284317,331.984100 251.699921,336.076263 
	C243.637680,348.842102 232.154266,356.199799 216.530090,356.032318 
	C205.699219,355.916199 194.866516,355.971039 183.907791,355.628357 
	C175.937622,351.424622 168.338608,347.209473 162.979095,339.589905 
	C165.066940,330.484070 164.128448,328.425018 156.845673,325.630127 
	C156.125565,321.679474 155.062134,318.088867 155.090027,314.506775 
	C155.221588,297.607025 155.456589,280.702942 156.030563,263.813202 
	C156.610031,246.761597 162.923691,231.550003 172.125732,217.438385 
	C173.045502,216.027893 174.714172,215.105759 176.256470,214.232315 
	C179.414917,219.236069 181.927704,224.313202 185.430573,228.576935 
	C187.997513,231.701447 192.335968,233.331985 196.310577,231.425842 
	C200.493942,229.419525 202.922424,225.809464 203.075455,220.665924 
	C203.376678,210.541382 198.613144,202.907944 192.139618,195.749451 
	C210.598694,180.649796 231.666046,173.365753 255.024902,173.073349 
	C280.685364,172.752121 306.352966,173.000015 332.485016,172.999405 
	C343.740051,173.324219 354.536926,173.465958 365.312927,174.015945 
	C383.597931,174.949188 399.812714,181.733459 414.706543,192.070526 
	C417.687775,194.139664 420.799530,196.020737 423.968140,198.311768 
	C425.640198,200.350571 427.166565,202.093079 428.754547,203.777527 
	C445.038452,221.050415 454.933441,241.306259 456.081604,265.166840 
	C456.879486,281.747925 456.779205,298.380188 456.759644,314.989197 
	C456.750183,323.044434 455.047119,330.907684 450.300964,337.616516 
	C447.455505,341.638702 443.894135,345.154419 440.654541,348.897766 
M329.448059,228.039551 
	C338.259460,219.182724 341.199341,208.621201 337.326050,199.738113 
	C334.927826,194.237991 330.748352,192.574448 325.220947,194.919983 
	C314.408173,199.508331 307.974548,215.979797 312.838684,226.621124 
	C315.122009,231.616379 319.093994,233.315521 324.212860,231.279648 
	C325.878906,230.617035 327.352356,229.469986 329.448059,228.039551 
M412.765045,296.495544 
	C405.972351,295.752014 401.358521,300.504669 403.612427,306.030609 
	C404.902893,309.194427 407.274200,311.827515 410.819977,310.802094 
	C413.370941,310.064392 416.476562,308.117828 417.484619,305.877930 
	C419.146515,302.185150 417.230713,298.781616 412.765045,296.495544 
M422.132507,329.869659 
	C420.306671,335.096436 421.357758,338.535217 425.366180,340.448975 
	C428.958313,342.164001 433.137329,340.607086 435.057526,336.807251 
	C436.827698,333.304321 435.984802,330.180878 433.083649,327.873474 
	C429.283386,324.850983 425.667084,325.659668 422.132507,329.869659 
M426.977203,266.258789 
	C422.757355,267.631531 420.176239,270.711639 421.324036,274.893066 
	C421.972107,277.254028 424.752411,279.817902 427.161987,280.726654 
	C431.000824,282.174408 435.123627,278.816711 435.835083,274.657196 
	C436.596313,270.206573 433.440247,266.881012 426.977203,266.258789 
M397.447876,328.057617 
	C394.300781,325.308533 390.569153,325.424957 388.043976,328.060242 
	C386.331573,329.847260 385.071045,333.832703 385.928131,335.848785 
	C386.898071,338.130310 390.334473,340.451538 392.922546,340.739258 
	C399.052338,341.420715 401.600037,334.886078 397.447876,328.057617 
M392.582092,280.968231 
	C396.466370,281.000427 399.229614,278.786987 399.634125,275.347351 
	C399.914246,272.965332 398.744965,269.326782 396.951141,268.079865 
	C394.996429,266.721161 391.054962,266.490356 388.941895,267.600098 
	C387.016785,268.611115 385.452026,272.053955 385.393677,274.465210 
	C385.305756,278.096252 388.148071,280.244629 392.582092,280.968231 
M372.489105,296.787689 
	C368.897552,299.039246 365.885010,301.646851 367.837921,306.472321 
	C369.247314,309.954803 373.673553,312.064575 376.956512,310.675018 
	C380.707703,309.087341 382.910675,306.064117 381.826782,301.922974 
	C380.727753,297.723907 377.762787,295.590240 372.489105,296.787689 
M198.368683,338.787445 
	C200.554153,335.215240 201.124573,331.656036 197.852966,328.428497 
	C195.532837,326.139648 192.832108,325.347321 189.755066,327.152374 
	C186.238892,329.215088 184.728134,333.945068 186.513977,337.507202 
	C188.301147,341.071991 192.833588,341.811920 198.368683,338.787445 
M316.189606,339.346893 
	C321.159607,341.810791 325.692566,341.074860 327.483582,337.513245 
	C329.270538,333.959747 327.760345,329.217377 324.250610,327.155457 
	C321.175781,325.348999 318.474457,326.136047 316.151459,328.423920 
	C312.876373,331.649506 313.444855,335.208405 316.189606,339.346893 
M349.994171,332.800964 
	C351.031403,335.196869 351.453369,338.326935 353.242188,339.825989 
	C356.349457,342.429993 361.277313,340.935669 363.103912,337.646088 
	C365.286224,333.715820 363.933899,329.125793 359.977448,327.034332 
	C355.995789,324.929504 352.487030,326.684875 349.994171,332.800964 
M332.762726,307.434662 
	C334.898773,311.104614 338.445465,312.080566 341.728699,310.275024 
	C343.744171,309.166656 345.822083,305.914795 345.690155,303.759003 
	C345.542267,301.342377 343.365448,298.450928 341.234161,296.975708 
	C339.921967,296.067413 336.743805,296.877869 334.932587,297.876343 
	C331.455017,299.793427 331.539734,303.259491 332.762726,307.434662 
M180.608917,299.141571 
	C177.603195,295.957764 174.318222,294.966064 170.613129,297.973328 
	C167.198181,300.745117 167.185745,304.302734 169.035217,307.764221 
	C170.878998,311.215088 174.249100,311.590576 177.660721,310.515442 
	C181.687286,309.246490 182.824173,305.405548 180.608917,299.141571 
z"/>
<path fill="#16A34A" opacity="1.000000" stroke="none" 
	d="
M440.879395,349.183441 
	C443.894135,345.154419 447.455505,341.638702 450.300964,337.616516 
	C455.047119,330.907684 456.750183,323.044434 456.759644,314.989197 
	C456.779205,298.380188 456.879486,281.747925 456.081604,265.166840 
	C454.933441,241.306259 445.038452,221.050415 428.754547,203.777527 
	C427.166565,202.093079 425.640198,200.350571 424.026337,197.846771 
	C423.455170,188.630035 424.372772,179.803619 422.159180,171.848526 
	C415.828613,149.098373 408.226624,126.701973 401.124634,104.166466 
	C411.771484,102.100861 422.418304,100.035248 433.451538,97.979706 
	C442.747498,108.997841 452.252625,119.582497 460.442719,131.102081 
	C477.502716,155.097351 488.482269,181.994690 495.662018,210.438675 
	C501.867249,235.021912 503.500732,260.172638 501.793915,285.297485 
	C499.320038,321.713226 488.760834,356.001404 470.988403,387.975189 
	C470.271240,389.265411 469.415710,390.478760 468.331329,391.919861 
	C459.060089,377.897552 450.082153,363.683350 440.879395,349.183441 
z"/>
<path fill="#9CA9AB" opacity="1.000000" stroke="none" 
	d="
M184.034622,355.949493 
	C194.866516,355.971039 205.699219,355.916199 216.530090,356.032318 
	C232.154266,356.199799 243.637680,348.842102 251.699921,336.076263 
	C254.284317,331.984100 255.180573,326.825775 256.870300,322.096130 
	C258.744202,326.717499 260.193115,331.708344 262.667480,336.124603 
	C269.818695,348.888062 280.915649,355.863373 295.613647,355.936523 
	C335.774261,356.136414 375.936401,356.029022 416.570892,356.064636 
	C417.059937,379.026581 397.789459,396.178741 376.633698,396.102509 
	C306.053436,395.848053 235.471573,396.027954 163.955536,396.044098 
	C159.205612,396.039917 155.389618,396.082977 151.575562,396.015656 
	C144.123459,395.884155 136.497253,396.653839 129.255020,395.336212 
	C110.281586,391.884125 97.848785,376.242523 97.397804,356.039001 
	C126.594376,355.998871 155.314499,355.974182 184.034622,355.949493 
z"/>
<path fill="#7E8D8E" opacity="1.000000" stroke="none" 
	d="
M96.921356,356.054504 
	C97.848785,376.242523 110.281586,391.884125 129.255020,395.336212 
	C136.497253,396.653839 144.123459,395.884155 151.575562,396.015656 
	C155.389618,396.082977 159.205612,396.039917 163.483810,396.060730 
	C166.654083,400.155548 170.261078,403.931183 171.781982,408.414490 
	C172.984894,411.960358 172.338211,416.574066 171.279465,420.369476 
	C167.040619,435.564636 162.998199,450.774841 163.052536,466.684143 
	C163.083649,475.791656 163.662399,484.897278 164.009933,494.419922 
	C145.998138,487.897644 129.375229,478.343292 113.736115,467.134186 
	C95.862152,454.323273 79.834877,439.435669 66.490852,421.900269 
	C59.310005,412.463898 52.811749,402.508118 46.221054,392.203522 
	C49.918728,386.180542 53.496838,380.799316 56.861240,375.287659 
	C62.378956,366.248383 67.757874,357.124359 73.477722,348.188995 
	C80.468826,353.950989 88.364662,355.995056 96.921356,356.054504 
z"/>
<path fill="#16A34A" opacity="1.000000" stroke="none" 
	d="
M73.195320,348.036072 
	C67.757874,357.124359 62.378956,366.248383 56.861240,375.287659 
	C53.496838,380.799316 49.918728,386.180542 46.177315,391.844849 
	C43.354252,387.894470 40.427235,383.896515 38.291794,379.512970 
	C30.504341,363.527222 23.538689,347.128082 19.565464,329.778564 
	C16.603111,316.843079 14.428541,303.633545 13.181835,290.425323 
	C11.952603,277.402252 11.356956,264.163513 12.210357,251.132523 
	C13.927296,224.915726 19.886347,199.512741 29.939972,175.132767 
	C39.228897,152.607208 51.784691,132.019943 66.760117,112.894356 
	C70.731995,107.821747 75.462875,103.343437 80.003990,98.291710 
	C90.638153,99.920250 101.113594,101.849335 111.963989,104.166878 
	C107.304344,119.691475 102.290237,134.834457 97.229454,149.961853 
	C92.012970,165.554596 88.972061,181.460129 90.016495,198.311829 
	C89.145683,199.518799 88.465363,200.470322 87.646477,201.282074 
	C69.829887,218.943497 59.322208,240.198669 57.762428,265.259766 
	C56.792065,280.850739 57.385220,296.535248 57.125896,312.175293 
	C56.885372,326.681549 61.536694,338.906036 73.195320,348.036072 
z"/>
<path fill="#B4BFC1" opacity="1.000000" stroke="none" 
	d="
M90.142448,197.991302 
	C88.972061,181.460129 92.012970,165.554596 97.229454,149.961853 
	C102.290237,134.834457 107.304344,119.691475 112.429169,104.143402 
	C114.321136,99.086792 116.122887,94.442131 118.244812,89.186844 
	C123.422241,80.400497 128.279480,72.224777 133.136719,64.049065 
	C139.996307,56.205330 146.855911,48.361603 153.872070,40.218094 
	C159.433929,35.943325 164.839233,31.968330 170.599838,27.928518 
	C168.577972,32.366264 165.864380,36.726284 163.885132,41.397449 
	C157.288971,56.965046 162.577835,75.530304 176.061615,85.583038 
	C179.645264,88.254814 180.989334,86.103874 182.389114,83.256332 
	C189.499268,68.792381 199.131943,56.190308 210.581894,44.896217 
	C230.094025,25.649740 253.293732,12.981993 279.646912,5.866586 
	C281.569794,5.347409 283.483978,4.796221 285.754547,4.102687 
	C296.148407,6.855030 306.475037,9.047223 316.145569,12.890361 
	C324.607269,16.253101 332.331482,21.471752 340.867767,26.176130 
	C341.603516,26.657793 341.863617,26.816416 342.134399,26.957592 
	C342.484406,26.956266 342.750366,27.105104 343.038666,27.985737 
	C343.634827,29.420326 344.045868,30.331385 344.626007,31.117664 
	C356.338440,46.990883 355.637909,65.103294 343.140900,80.554489 
	C337.624939,87.374336 330.085114,90.469856 322.437897,93.711525 
	C310.155396,98.918137 302.993591,108.645981 300.369080,121.302048 
	C298.699951,129.350906 298.733582,137.752853 297.636414,145.931290 
	C277.650574,138.296539 257.487122,136.076355 236.792374,140.064972 
	C229.816681,141.409424 222.958542,143.363907 216.030701,144.603455 
	C215.168427,136.115540 215.097305,127.887367 213.313751,120.048851 
	C209.649918,103.946693 198.324036,94.880554 183.170105,89.871086 
	C179.836716,88.769165 178.498825,90.639839 177.552597,93.094887 
	C175.287949,98.970665 173.183655,104.908264 170.556473,110.892395 
	C166.947937,110.986244 163.791809,110.897453 160.648651,111.059647 
	C156.892471,111.253471 154.948395,113.524147 154.810165,117.144859 
	C154.676224,120.653442 156.676712,122.695335 160.050110,123.285980 
	C161.994003,123.626328 163.986969,123.686424 166.099274,124.078766 
	C166.439407,124.556007 166.675034,124.789940 167.044891,125.302444 
	C167.151810,126.058235 167.161438,126.498253 166.825439,127.047134 
	C165.953873,127.765327 165.151733,128.292587 164.942627,128.996109 
	C160.588150,143.646774 156.300873,158.317429 151.670013,173.218719 
	C150.867966,173.602524 150.400940,173.864853 149.923859,173.884674 
	C129.490173,174.734100 111.568916,182.135803 95.555885,194.602722 
	C93.884872,195.903687 91.953194,196.869827 90.142448,197.991302 
z"/>
<path fill="#909EA0" opacity="1.000000" stroke="none" 
	d="
M132.831879,63.877892 
	C128.279480,72.224777 123.422241,80.400497 118.326584,88.820221 
	C105.389893,88.479103 92.970001,86.576439 81.280571,81.248833 
	C80.232147,80.770996 79.136337,80.314377 78.225456,79.630806 
	C71.789368,74.800842 70.870560,73.014549 73.878807,65.322792 
	C76.769905,57.930569 80.565231,50.875446 84.220734,43.805340 
	C86.203743,39.970001 89.684662,40.772305 93.000755,41.840252 
	C107.605896,46.543850 120.252983,54.788513 132.831879,63.877892 
z"/>
<path fill="#C0CACC" opacity="1.000000" stroke="none" 
	d="
M298.003662,145.996475 
	C298.733582,137.752853 298.699951,129.350906 300.369080,121.302048 
	C302.993591,108.645981 310.155396,98.918137 322.437897,93.711525 
	C330.085114,90.469856 337.624939,87.374336 343.140900,80.554489 
	C355.637909,65.103294 356.338440,46.990883 344.626007,31.117664 
	C344.045868,30.331385 343.634827,29.420326 343.094757,28.216541 
	C348.463043,31.845959 353.881592,35.826210 359.636749,39.859039 
	C366.774323,47.832878 373.575287,55.754128 380.807434,64.172287 
	C385.846649,72.768944 390.454681,80.868690 395.062744,88.968430 
	C397.019440,93.785973 398.976135,98.603523 401.028748,103.793762 
	C408.226624,126.701973 415.828613,149.098373 422.159180,171.848526 
	C424.372772,179.803619 423.455170,188.630035 423.909302,197.523529 
	C420.799530,196.020737 417.687775,194.139664 414.706543,192.070526 
	C399.812714,181.733459 383.597931,174.949188 365.312927,174.015945 
	C354.536926,173.465958 343.740051,173.324219 332.341431,172.691986 
	C330.536316,170.799850 329.450745,169.117355 328.130646,167.645126 
	C319.681885,158.222565 309.398407,151.331055 298.003662,145.996475 
M324.047424,116.723450 
	C320.330475,124.090034 322.481964,132.142395 329.271729,134.795959 
	C336.839874,137.753723 343.844940,135.476913 347.733521,123.683090 
	C349.167419,123.608154 350.650543,123.545090 352.131653,123.450478 
	C356.224365,123.189018 359.382629,121.701126 359.228638,116.981430 
	C359.073975,112.239799 355.814972,110.988121 351.699066,110.996155 
	C346.380707,111.006531 341.060974,111.071556 335.744293,110.975594 
	C331.129272,110.892296 327.296997,112.350433 324.047424,116.723450 
z"/>
<path fill="#9CA9AB" opacity="1.000000" stroke="none" 
	d="
M395.509521,88.976654 
	C390.454681,80.868690 385.846649,72.768944 381.077484,64.368286 
	C392.754456,55.112026 405.208221,47.191925 419.247559,42.127010 
	C426.168610,39.630119 428.333130,40.411282 431.806244,46.868092 
	C435.023010,52.848419 438.136658,58.964123 440.456818,65.326164 
	C443.216919,72.894485 440.515442,77.577660 433.167053,81.151833 
	C421.383881,86.883041 408.827118,88.598763 395.509521,88.976654 
z"/>
<path fill="#B4BFC1" opacity="1.000000" stroke="none" 
	d="
M172.063568,26.846239 
	C172.057800,26.672495 172.252853,26.387484 172.711731,26.132561 
	C172.776901,26.401163 172.539856,26.591938 172.063568,26.846239 
z"/>
<path fill="#C0CACC" opacity="1.000000" stroke="none" 
	d="
M342.038635,26.710663 
	C341.863617,26.816416 341.603516,26.657793 341.192474,26.320179 
	C341.334869,26.260340 341.638885,26.362038 342.038635,26.710663 
z"/>
<path fill="#A8B4B6" opacity="1.000000" stroke="none" 
	d="
M297.636414,145.931290 
	C309.398407,151.331055 319.681885,158.222565 328.130646,167.645126 
	C329.450745,169.117355 330.536316,170.799850 331.873901,172.692535 
	C306.352966,173.000015 280.685364,172.752121 255.024902,173.073349 
	C231.666046,173.365753 210.598694,180.649796 191.770538,195.669739 
	C180.564728,192.408875 176.020508,195.730453 175.995697,207.009018 
	C175.990601,209.324982 176.021149,211.640991 176.035263,213.956970 
	C174.714172,215.105759 173.045502,216.027893 172.125732,217.438385 
	C162.923691,231.550003 156.610031,246.761597 156.030563,263.813202 
	C155.456589,280.702942 155.221588,297.607025 155.090027,314.506775 
	C155.062134,318.088867 156.125565,321.679474 156.491913,325.696106 
	C152.779373,327.342346 149.482208,329.227142 150.189865,333.412903 
	C150.605972,335.874084 152.281708,339.122711 154.297333,340.052826 
	C156.665848,341.145782 160.016815,340.109711 162.941711,339.996948 
	C168.338608,347.209473 175.937622,351.424622 183.907791,355.628357 
	C155.314499,355.974182 126.594376,355.998871 97.397804,356.039001 
	C88.364662,355.995056 80.468826,353.950989 73.477722,348.188995 
	C61.536694,338.906036 56.885372,326.681549 57.125896,312.175293 
	C57.385220,296.535248 56.792065,280.850739 57.762428,265.259766 
	C59.322208,240.198669 69.829887,218.943497 87.646477,201.282074 
	C88.465363,200.470322 89.145683,199.518799 90.016495,198.311829 
	C91.953194,196.869827 93.884872,195.903687 95.555885,194.602722 
	C111.568916,182.135803 129.490173,174.734100 149.923859,173.884674 
	C150.400940,173.864853 150.867966,173.602524 152.138550,173.227966 
	C161.244202,173.001419 169.555237,173.142136 177.854538,172.892502 
	C179.767487,172.834961 182.292175,171.969604 183.426544,170.574463 
	C191.321518,160.864502 200.823044,153.319122 212.091568,147.916473 
	C213.537354,147.223297 214.734406,146.011276 216.046677,145.039597 
	C222.958542,143.363907 229.816681,141.409424 236.792374,140.064972 
	C257.487122,136.076355 277.650574,138.296539 297.636414,145.931290 
M109.855614,307.174591 
	C111.923607,303.104340 111.113045,299.610779 107.195549,297.376251 
	C103.599632,295.325134 100.064758,296.033081 97.474098,299.385010 
	C94.955421,302.643829 95.704247,306.803375 99.035378,309.484436 
	C102.258835,312.078827 105.747917,311.524841 109.855614,307.174591 
M90.956879,278.452118 
	C93.695206,273.674255 93.308723,270.091736 89.779305,267.536316 
	C86.857185,265.420593 82.245148,265.943176 79.891838,268.821411 
	C77.327858,271.957245 77.472778,275.211487 79.971466,278.345123 
	C82.678986,281.740692 86.041893,281.938995 90.956879,278.452118 
M92.894302,332.726715 
	C92.069580,328.908142 89.767181,325.847107 85.894516,326.396301 
	C83.259995,326.769928 79.838783,329.008942 78.846977,331.309509 
	C77.986313,333.305847 79.284851,337.236694 80.964081,339.126068 
	C85.110344,343.791229 91.131554,340.803894 92.894302,332.726715 
M121.503922,340.986725 
	C125.732384,341.058868 128.673416,338.296692 128.450577,334.842041 
	C128.269684,332.037720 125.681114,328.515594 123.152771,327.049866 
	C121.529701,326.108978 117.362938,327.572662 115.592239,329.269226 
	C111.498489,333.191589 114.249001,339.011841 121.503922,340.986725 
M126.413567,279.042206 
	C129.677475,274.368500 129.504181,271.644379 125.775726,268.318665 
	C122.500847,265.397522 119.261345,265.459167 116.116119,268.457642 
	C113.296898,271.145325 113.217278,274.333435 115.138557,277.438019 
	C117.589828,281.398987 120.916168,281.946075 126.413567,279.042206 
M132.231903,301.153076 
	C131.239700,305.734711 132.941040,309.216583 137.252792,310.663391 
	C140.656464,311.805481 143.857620,310.519501 145.710892,307.155029 
	C147.671967,303.594788 146.441315,299.828400 142.587341,297.410004 
	C138.123856,294.609131 135.120590,296.902161 132.231903,301.153076 
z"/>
<path fill="#9DAAAC" opacity="1.000000" stroke="none" 
	d="
M329.180969,228.292023 
	C327.352356,229.469986 325.878906,230.617035 324.212860,231.279648 
	C319.093994,233.315521 315.122009,231.616379 312.838684,226.621124 
	C307.974548,215.979797 314.408173,199.508331 325.220947,194.919983 
	C330.748352,192.574448 334.927826,194.237991 337.326050,199.738113 
	C341.199341,208.621201 338.259460,219.182724 329.180969,228.292023 
z"/>
<path fill="#9CA9AB" opacity="1.000000" stroke="none" 
	d="
M176.256470,214.232330 
	C176.021149,211.640991 175.990601,209.324982 175.995697,207.009018 
	C176.020508,195.730453 180.564728,192.408875 191.585602,195.952850 
	C198.613144,202.907944 203.376678,210.541382 203.075455,220.665924 
	C202.922424,225.809464 200.493942,229.419525 196.310577,231.425842 
	C192.335968,233.331985 187.997513,231.701447 185.430573,228.576935 
	C181.927704,224.313202 179.414917,219.236069 176.256470,214.232330 
z"/>
<path fill="#9DAAAC" opacity="1.000000" stroke="none" 
	d="
M413.120300,296.649628 
	C417.230713,298.781616 419.146515,302.185150 417.484619,305.877930 
	C416.476562,308.117828 413.370941,310.064392 410.819977,310.802094 
	C407.274200,311.827515 404.902893,309.194427 403.612427,306.030609 
	C401.358521,300.504669 405.972351,295.752014 413.120300,296.649628 
z"/>
<path fill="#9DAAAC" opacity="1.000000" stroke="none" 
	d="
M422.340363,329.541443 
	C425.667084,325.659668 429.283386,324.850983 433.083649,327.873474 
	C435.984802,330.180878 436.827698,333.304321 435.057526,336.807251 
	C433.137329,340.607086 428.958313,342.164001 425.366180,340.448975 
	C421.357758,338.535217 420.306671,335.096436 422.340363,329.541443 
z"/>
<path fill="#9DAAAC" opacity="1.000000" stroke="none" 
	d="
M427.356506,266.190887 
	C433.440247,266.881012 436.596313,270.206573 435.835083,274.657196 
	C435.123627,278.816711 431.000824,282.174408 427.161987,280.726654 
	C424.752411,279.817902 421.972107,277.254028 421.324036,274.893066 
	C420.176239,270.711639 422.757355,267.631531 427.356506,266.190887 
z"/>
<path fill="#9DAAAC" opacity="1.000000" stroke="none" 
	d="
M397.719788,328.331177 
	C401.600037,334.886078 399.052338,341.420715 392.922546,340.739258 
	C390.334473,340.451538 386.898071,338.130310 385.928131,335.848785 
	C385.071045,333.832703 386.331573,329.847260 388.043976,328.060242 
	C390.569153,325.424957 394.300781,325.308533 397.719788,328.331177 
z"/>
<path fill="#9DAAAC" opacity="1.000000" stroke="none" 
	d="
M392.190521,280.942200 
	C388.148071,280.244629 385.305756,278.096252 385.393677,274.465210 
	C385.452026,272.053955 387.016785,268.611115 388.941895,267.600098 
	C391.054962,266.490356 394.996429,266.721161 396.951141,268.079865 
	C398.744965,269.326782 399.914246,272.965332 399.634125,275.347351 
	C399.229614,278.786987 396.466370,281.000427 392.190521,280.942200 
z"/>
<path fill="#9DAAAC" opacity="1.000000" stroke="none" 
	d="
M372.832703,296.639862 
	C377.762787,295.590240 380.727753,297.723907 381.826782,301.922974 
	C382.910675,306.064117 380.707703,309.087341 376.956512,310.675018 
	C373.673553,312.064575 369.247314,309.954803 367.837921,306.472321 
	C365.885010,301.646851 368.897552,299.039246 372.832703,296.639862 
z"/>
<path fill="#9DAAAC" opacity="1.000000" stroke="none" 
	d="
M198.086914,339.069000 
	C192.833588,341.811920 188.301147,341.071991 186.513977,337.507202 
	C184.728134,333.945068 186.238892,329.215088 189.755066,327.152374 
	C192.832108,325.347321 195.532837,326.139648 197.852966,328.428497 
	C201.124573,331.656036 200.554153,335.215240 198.086914,339.069000 
z"/>
<path fill="#9DAAAC" opacity="1.000000" stroke="none" 
	d="
M315.908661,339.064575 
	C313.444855,335.208405 312.876373,331.649506 316.151459,328.423920 
	C318.474457,326.136047 321.175781,325.348999 324.250610,327.155457 
	C327.760345,329.217377 329.270538,333.959747 327.483582,337.513245 
	C325.692566,341.074860 321.159607,341.810791 315.908661,339.064575 
z"/>
<path fill="#9CA9AB" opacity="1.000000" stroke="none" 
	d="
M350.024567,332.399658 
	C352.487030,326.684875 355.995789,324.929504 359.977448,327.034332 
	C363.933899,329.125793 365.286224,333.715820 363.103912,337.646088 
	C361.277313,340.935669 356.349457,342.429993 353.242188,339.825989 
	C351.453369,338.326935 351.031403,335.196869 350.024567,332.399658 
z"/>
<path fill="#9CA9AB" opacity="1.000000" stroke="none" 
	d="
M332.599518,307.070068 
	C331.539734,303.259491 331.455017,299.793427 334.932587,297.876343 
	C336.743805,296.877869 339.921967,296.067413 341.234161,296.975708 
	C343.365448,298.450928 345.542267,301.342377 345.690155,303.759003 
	C345.822083,305.914795 343.744171,309.166656 341.728699,310.275024 
	C338.445465,312.080566 334.898773,311.104614 332.599518,307.070068 
z"/>
<path fill="#9CA9AB" opacity="1.000000" stroke="none" 
	d="
M180.854843,299.445312 
	C182.824173,305.405548 181.687286,309.246490 177.660721,310.515442 
	C174.249100,311.590576 170.878998,311.215088 169.035217,307.764221 
	C167.185745,304.302734 167.198181,300.745117 170.613129,297.973328 
	C174.318222,294.966064 177.603195,295.957764 180.854843,299.445312 
z"/>
<path fill="#9CA9AB" opacity="1.000000" stroke="none" 
	d="
M162.979095,339.589905 
	C160.016815,340.109711 156.665848,341.145782 154.297333,340.052826 
	C152.281708,339.122711 150.605972,335.874084 150.189865,333.412903 
	C149.482208,329.227142 152.779373,327.342346 156.651398,326.060059 
	C164.128448,328.425018 165.066940,330.484070 162.979095,339.589905 
z"/>
<path fill="#BFC9CB" opacity="1.000000" stroke="none" 
	d="
M216.030701,144.603455 
	C214.734406,146.011276 213.537354,147.223297 212.091568,147.916473 
	C200.823044,153.319122 191.321518,160.864502 183.426544,170.574463 
	C182.292175,171.969604 179.767487,172.834961 177.854538,172.892502 
	C169.555237,173.142136 161.244202,173.001419 152.468887,172.993378 
	C156.300873,158.317429 160.588150,143.646774 164.942627,128.996109 
	C165.151733,128.292587 165.953873,127.765327 167.080246,127.266060 
	C167.896240,127.825668 168.085526,128.290176 168.331436,128.722488 
	C171.694504,134.635117 177.807693,137.337051 183.256531,135.327972 
	C189.308395,133.096558 192.713623,127.756783 191.894745,121.782242 
	C191.023560,115.426109 186.010818,111.229286 178.989258,111.003471 
	C176.331848,110.918007 173.672882,110.880348 171.014633,110.820908 
	C173.183655,104.908264 175.287949,98.970665 177.552597,93.094887 
	C178.498825,90.639839 179.836716,88.769165 183.170105,89.871086 
	C198.324036,94.880554 209.649918,103.946693 213.313751,120.048851 
	C215.097305,127.887367 215.168427,136.115540 216.030701,144.603455 
z"/>
<path fill="#34233B" opacity="1.000000" stroke="none" 
	d="
M170.556473,110.892395 
	C173.672882,110.880348 176.331848,110.918007 178.989258,111.003471 
	C186.010818,111.229286 191.023560,115.426109 191.894745,121.782242 
	C192.713623,127.756783 189.308395,133.096558 183.256531,135.327972 
	C177.807693,137.337051 171.694504,134.635117 168.331436,128.722488 
	C168.085526,128.290176 167.896240,127.825668 167.425842,127.157196 
	C167.161438,126.498253 167.151810,126.058235 167.043976,124.997253 
	C166.616455,124.208420 166.287155,124.040535 165.957840,123.872658 
	C163.986969,123.686424 161.994003,123.626328 160.050110,123.285980 
	C156.676712,122.695335 154.676224,120.653442 154.810165,117.144859 
	C154.948395,113.524147 156.892471,111.253471 160.648651,111.059647 
	C163.791809,110.897453 166.947937,110.986244 170.556473,110.892395 
z"/>
<path fill="#BFC9CB" opacity="1.000000" stroke="none" 
	d="
M166.099274,124.078766 
	C166.287155,124.040535 166.616455,124.208420 166.946686,124.681488 
	C166.675034,124.789940 166.439407,124.556007 166.099274,124.078766 
z"/>
<path fill="#34233B" opacity="1.000000" stroke="none" 
	d="
M324.246796,116.401123 
	C327.296997,112.350433 331.129272,110.892296 335.744293,110.975594 
	C341.060974,111.071556 346.380707,111.006531 351.699066,110.996155 
	C355.814972,110.988121 359.073975,112.239799 359.228638,116.981430 
	C359.382629,121.701126 356.224365,123.189018 352.131653,123.450478 
	C350.650543,123.545090 349.167419,123.608154 347.733521,123.683090 
	C343.844940,135.476913 336.839874,137.753723 329.271729,134.795959 
	C322.481964,132.142395 320.330475,124.090034 324.246796,116.401123 
z"/>
<path fill="#9CA9AB" opacity="1.000000" stroke="none" 
	d="
M109.647583,307.503540 
	C105.747917,311.524841 102.258835,312.078827 99.035378,309.484436 
	C95.704247,306.803375 94.955421,302.643829 97.474098,299.385010 
	C100.064758,296.033081 103.599632,295.325134 107.195549,297.376251 
	C111.113045,299.610779 111.923607,303.104340 109.647583,307.503540 
z"/>
<path fill="#9CA9AB" opacity="1.000000" stroke="none" 
	d="
M90.693253,278.739441 
	C86.041893,281.938995 82.678986,281.740692 79.971466,278.345123 
	C77.472778,275.211487 77.327858,271.957245 79.891838,268.821411 
	C82.245148,265.943176 86.857185,265.420593 89.779305,267.536316 
	C93.308723,270.091736 93.695206,273.674255 90.693253,278.739441 
z"/>
<path fill="#9CA9AB" opacity="1.000000" stroke="none" 
	d="
M92.915039,333.114380 
	C91.131554,340.803894 85.110344,343.791229 80.964081,339.126068 
	C79.284851,337.236694 77.986313,333.305847 78.846977,331.309509 
	C79.838783,329.008942 83.259995,326.769928 85.894516,326.396301 
	C89.767181,325.847107 92.069580,328.908142 92.915039,333.114380 
z"/>
<path fill="#9CA9AB" opacity="1.000000" stroke="none" 
	d="
M121.107513,340.979553 
	C114.249001,339.011841 111.498489,333.191589 115.592239,329.269226 
	C117.362938,327.572662 121.529701,326.108978 123.152771,327.049866 
	C125.681114,328.515594 128.269684,332.037720 128.450577,334.842041 
	C128.673416,338.296692 125.732384,341.058868 121.107513,340.979553 
z"/>
<path fill="#9CA9AB" opacity="1.000000" stroke="none" 
	d="
M126.132629,279.311615 
	C120.916168,281.946075 117.589828,281.398987 115.138557,277.438019 
	C113.217278,274.333435 113.296898,271.145325 116.116119,268.457642 
	C119.261345,265.459167 122.500847,265.397522 125.775726,268.318665 
	C129.504181,271.644379 129.677475,274.368500 126.132629,279.311615 
z"/>
<path fill="#9CA9AB" opacity="1.000000" stroke="none" 
	d="
M132.372803,300.787292 
	C135.120590,296.902161 138.123856,294.609131 142.587341,297.410004 
	C146.441315,299.828400 147.671967,303.594788 145.710892,307.155029 
	C143.857620,310.519501 140.656464,311.805481 137.252792,310.663391 
	C132.941040,309.216583 131.239700,305.734711 132.372803,300.787292 
z"/>
</svg>